# xmcd
#
# Track frame offsets:
#	182
#	16037
#	36300
#	55172
#	69380
#	83390
#	98052
#	114040
#	131602
#	146787
#	161145
#	173832
#	189127
#	206752
#	218420
#	231867
#	245535
#	260800
#	273975
#	289295
#	311717
#	326575
#	342360
#
# Disc length: 4791 seconds
#
# Revision: 1
# Processed by: cddbd v1.5.2PL0 Copyright (c) Steve Scherf et al.
# Submitted via: EZCDAudioConverter 7.1.1.1
#
DISCID=4a12b517
DTITLE=Various Artist - Can You Dig It? The '70s Soul Experience [CD5]
DYEAR=2001
DGENRE=Soul
TTITLE0=James Brown - The Payback (Part I)
TTITLE1=Kool and The Gang - Hollywood Swinging
TTITLE2=Blue Magic - Sideshow
TTITLE3=The Hues Corporation - Rock The Boat
TTITLE4=The Impressions - Finally Got Myself Together (I'm A Changed Man)
TTITLE5=George McCrae - Rock Your Baby
TTITLE6=Rufus - Tell Me Something Good
TTITLE7=The Pointer Sisters - Yes We Can Can
TTITLE8=Johnny Bristol - Hang On In There Baby
TTITLE9=B.T. Express - Do It ('Til You're Satisfied)
TTITLE10=The Tymes - You Little Trustmaker
TTITLE11=Minnie Riperton - Lovin' You
TTITLE12=Shirley Brown - Woman To Woman
TTITLE13=Carl Carlton - Everlasting Love
TTITLE14=The Three Degrees - When Will I See You Again
TTITLE15=AWB - Pick Up The Pieces
TTITLE16=Labelle - Lady Marmalade
TTITLE17=The Blackbyrds - Walking In Rhythm
TTITLE18=Ben E. King - Supernatural Thing (Part I)
TTITLE19=Earth, Wind and Fire - Reasons
TTITLE20=Gwen Mccrae - Rockin' Chair
TTITLE21=Rose Royce - I Wanna Get Next To You
TTITLE22=Major Harris - Love Won't Let Me Wait
EXTD=
EXTT0=
EXTT1=
EXTT2=
EXTT3=
EXTT4=
EXTT5=
EXTT6=
EXTT7=
EXTT8=
EXTT9=
EXTT10=
EXTT11=
EXTT12=
EXTT13=
EXTT14=
EXTT15=
EXTT16=
EXTT17=
EXTT18=
EXTT19=
EXTT20=
EXTT21=
EXTT22=
PLAYORDER=
